 <svg version="1.0" xmlns="http://www.w3.org/2000/svg" width="700.000000pt" height="1677.000000pt" viewBox="0 0 700.000000 1677.000000" preserveAspectRatio="xMidYMid meet">
<metadata>
Created by potrace 1.12, written by Peter Selinger 2001-2015
</metadata>
<g transform="translate(0.000000,1677.000000) scale(0.100000,-0.100000)" fill="#000000" stroke="none">
<path d="M3217 16763 c-4 -3 -30 -15 -59 -25 -29 -10 -77 -34 -108 -54 -54
-36 -200 -178 -200 -195 0 -14 -37 -10 -49 5 -22 26 -65 28 -124 6 -30 -11
-67 -30 -82 -42 l-27 -21 -29 31 c-38 41 -62 46 -173 38 l-91 -7 -73 -72 c-44
-43 -85 -95 -103 -129 -26 -51 -33 -58 -59 -58 -75 0 -143 -59 -179 -155 -12
-30 -21 -59 -21 -63 0 -5 -42 -8 -92 -7 -81 0 -100 -3 -148 -27 -94 -46 -160
-132 -160 -208 0 -53 25 -94 94 -156 36 -32 68 -64 70 -71 3 -6 -12 -38 -32
-70 -88 -137 -88 -139 44 -322 43 -61 31 -85 -81 -160 -105 -71 -145 -122
-145 -187 0 -50 45 -92 145 -133 44 -19 83 -39 87 -45 4 -6 8 -38 8 -71 0 -33
6 -71 13 -84 7 -14 43 -40 82 -60 67 -35 70 -38 73 -76 12 -192 136 -342 322
-390 62 -16 103 -16 198 1 l32 6 0 -197 c0 -443 48 -846 131 -1102 46 -140 74
-160 308 -219 191 -48 197 -52 212 -122 7 -31 12 -75 13 -96 l1 -40 -69 -18
c-38 -10 -162 -49 -275 -87 -346 -116 -440 -140 -617 -162 l-102 -12 -115
-236 c-152 -313 -170 -356 -227 -531 -22 -67 -50 -127 -76 -165 -49 -70 -107
-184 -159 -310 -21 -49 -46 -109 -56 -132 -11 -24 -19 -46 -19 -50 0 -14 -38
-95 -124 -263 -179 -350 -206 -406 -230 -477 -28 -84 -28 -84 60 -111 36 -11
60 -24 62 -34 2 -9 -7 -38 -18 -64 -50 -113 -139 -365 -189 -534 -12 -41 -26
-86 -31 -100 -4 -14 -13 -43 -19 -65 -27 -96 -124 -445 -138 -495 -8 -30 -19
-71 -25 -90 -23 -84 -41 -174 -62 -315 -14 -88 -21 -178 -51 -640 -14 -208
-40 -435 -64 -555 -20 -100 -47 -304 -61 -468 -12 -132 -3 -259 26 -381 9 -35
12 -67 7 -71 -4 -4 -57 -24 -118 -44 -106 -36 -272 -111 -307 -139 -15 -12
-18 -31 -18 -111 0 -53 4 -104 9 -114 5 -9 15 -39 22 -66 13 -50 63 -126 108
-161 49 -39 76 -48 146 -49 100 -1 150 17 334 124 l74 43 46 -17 c126 -48 205
-56 281 -30 52 18 100 14 192 -16 98 -32 131 -28 182 24 24 24 47 57 51 75 4
18 13 31 22 31 8 0 33 10 56 23 31 17 46 36 68 82 60 131 70 165 64 220 -5 40
-3 54 10 65 9 8 19 9 24 4 14 -15 30 -188 37 -407 l6 -207 -26 -40 c-47 -72
-65 -108 -88 -182 -21 -66 -23 -92 -23 -263 1 -200 6 -236 85 -630 77 -385 89
-673 51 -1195 -24 -313 -32 -526 -25 -639 5 -95 3 -129 -9 -172 -39 -130 -47
-250 -27 -392 5 -40 15 -110 21 -157 16 -120 26 -150 51 -150 12 0 46 12 75
26 30 14 60 23 67 21 16 -6 30 -435 15 -453 -5 -7 -41 -28 -79 -47 -108 -57
-241 -155 -380 -282 -306 -280 -334 -315 -328 -403 3 -40 7 -49 31 -60 70 -34
279 -83 427 -102 52 -6 111 -16 131 -21 48 -12 397 -12 451 1 24 5 75 14 113
21 129 21 296 80 317 112 11 16 0 139 -17 203 -8 27 -36 102 -63 165 -27 63
-55 141 -62 174 -29 135 -41 170 -72 218 -53 83 -51 148 15 392 13 50 29 115
36 145 19 88 32 131 55 190 18 45 29 59 61 74 22 11 58 28 80 39 22 11 87 53
145 92 197 136 281 160 465 136 212 -28 323 -35 372 -21 26 7 136 16 243 20
107 5 224 13 260 18 36 6 99 15 140 21 41 6 104 15 140 20 36 6 116 15 178 21
105 11 115 10 134 -7 32 -29 44 -62 57 -153 12 -80 21 -116 41 -165 62 -145
116 -322 130 -422 20 -137 -5 -232 -102 -393 -91 -150 -111 -206 -112 -309 -1
-43 -2 -45 -55 -72 -105 -55 -146 -116 -139 -213 5 -73 29 -84 186 -85 68 -1
153 -5 190 -10 37 -6 112 -15 167 -21 55 -6 134 -15 175 -20 186 -23 347 -32
635 -35 171 -1 346 -8 390 -14 272 -36 442 -35 565 6 63 20 131 83 151 138 7
19 17 35 21 35 4 0 8 17 8 38 0 41 -36 87 -75 94 -13 2 -24 17 -33 45 -19 58
-73 106 -110 96 -45 -13 -213 -7 -283 10 -37 9 -93 28 -125 43 -33 15 -72 31
-89 35 -16 4 -47 12 -67 17 -49 13 -94 42 -146 96 -28 29 -68 54 -110 72 -37
16 -155 72 -262 125 -107 54 -217 107 -243 119 -30 13 -51 30 -57 45 -5 14
-25 32 -44 41 -19 9 -37 26 -39 38 -3 12 -10 39 -16 61 -27 96 -41 287 -41
540 l0 259 34 36 34 35 12 480 c21 901 23 1224 11 1520 -6 160 -14 320 -17
356 -5 60 -4 68 20 96 22 27 112 77 181 103 106 39 191 106 182 144 -3 11 -10
40 -16 62 -6 23 -9 78 -6 123 3 70 7 85 27 101 29 24 173 80 207 80 27 0 117
53 150 87 73 77 91 162 91 413 0 96 4 181 9 189 8 12 20 12 78 2 37 -7 91 -15
119 -18 l52 -5 7 458 c8 463 2 891 -15 1084 -5 58 -14 184 -20 280 -6 96 -15
225 -20 286 -6 60 -10 249 -10 420 0 350 6 396 69 603 24 78 44 166 48 210 4
55 15 96 38 146 65 142 107 287 126 442 12 94 11 104 -5 122 -35 38 -87 55
-189 61 l-98 5 -43 101 c-180 419 -476 873 -784 1204 -18 19 -49 64 -69 100
-20 36 -90 148 -156 249 -157 241 -194 304 -264 442 -41 82 -56 99 -89 99 -26
0 -213 88 -292 138 -90 56 -137 72 -215 72 -106 0 -202 -39 -356 -143 -65 -43
-76 -48 -98 -38 -13 6 -44 11 -68 11 -45 0 -125 14 -185 32 -57 17 -70 35 -70
93 0 54 9 69 45 78 11 3 -29 3 -90 0 -107 -5 -302 8 -417 27 -133 23 -171 29
-328 55 l-165 26 -42 45 c-81 87 -167 286 -212 494 -7 30 -16 73 -21 95 -5 22
-14 76 -20 120 -6 44 -16 109 -22 145 -6 36 -12 171 -13 300 -2 129 -4 248 -4
264 -1 24 -4 28 -23 23 -13 -3 -52 -13 -88 -21 -194 -46 -354 80 -368 289 -6
100 0 117 50 145 100 56 188 24 352 -128 129 -120 131 -121 152 -81 12 25 14
40 6 71 -9 34 -6 52 24 136 27 77 34 112 34 174 0 68 -4 83 -35 141 -72 137
-135 477 -135 732 1 209 6 219 150 294 180 93 475 161 695 161 86 0 238 -23
314 -46 97 -31 210 -100 248 -155 23 -32 98 -345 133 -554 7 -38 16 -88 20
-110 11 -46 -1 -66 -28 -48 -10 6 -44 16 -75 23 -93 21 -198 -9 -317 -90 -30
-21 -68 -52 -84 -69 -17 -17 -33 -31 -38 -31 -4 0 -31 11 -60 25 -162 75 -346
73 -442 -7 -36 -29 -36 -30 -36 -108 0 -99 25 -170 80 -226 47 -49 106 -79
170 -87 41 -5 65 -2 159 18 28 7 33 5 30 -10 -8 -39 -155 -115 -223 -115 -14
0 -28 -4 -31 -10 -4 -6 15 -10 50 -10 93 0 159 40 320 194 44 42 91 79 103 83
29 7 79 -8 152 -44 l54 -28 54 -133 c64 -161 82 -228 82 -302 0 -60 -15 -126
-31 -135 -5 -4 -60 0 -122 9 -61 8 -161 19 -222 25 -60 6 -140 13 -177 17 -38
3 -72 12 -79 20 -11 13 -8 56 6 102 7 21 5 23 -16 20 -15 -2 -32 -17 -46 -43
-20 -36 -31 -64 -63 -167 -13 -41 6 -34 32 12 26 46 33 48 64 19 21 -19 36
-21 201 -24 98 -2 205 -8 238 -14 33 -6 86 -16 117 -22 67 -14 77 -8 111 55
17 33 21 58 21 131 0 104 -26 208 -82 323 -20 42 -31 77 -26 82 5 4 50 14 99
22 67 10 90 17 90 28 0 16 -8 16 -112 4 -36 -4 -63 -3 -63 2 0 5 19 18 42 29
23 11 77 48 119 83 42 34 81 62 87 62 11 0 78 -167 112 -280 12 -41 26 -86 31
-100 28 -81 115 -456 138 -596 5 -32 17 -102 26 -154 8 -52 20 -121 25 -152 6
-32 14 -84 20 -115 5 -32 15 -89 22 -128 7 -39 12 -158 12 -270 1 -185 -1
-204 -22 -256 -43 -106 -125 -173 -242 -197 -115 -23 -175 -32 -216 -32 -24 0
-46 -4 -49 -10 -9 -14 60 -13 205 5 212 27 321 65 381 133 60 68 64 88 63 292
-1 156 -6 209 -29 335 -15 83 -31 170 -35 195 -21 123 -31 162 -60 245 -76
218 -100 298 -124 420 -34 167 -47 217 -60 234 -8 10 -5 17 12 30 69 48 92 75
107 123 27 94 3 168 -89 276 -25 30 -46 59 -46 65 0 7 11 33 24 57 65 121 72
246 20 338 l-28 50 42 46 c24 25 47 58 52 72 15 39 11 105 -9 149 -23 49 -100
126 -158 157 -23 13 -43 27 -43 31 0 5 11 23 24 40 78 104 47 225 -97 369 -61
61 -69 73 -59 89 20 32 14 102 -10 139 -29 43 -136 116 -191 131 -25 7 -68 9
-106 5 l-64 -7 6 30 c8 38 -19 129 -45 158 -18 19 -47 35 -170 95 -21 10 -162
11 -171 1z m637 -1763 c191 -96 134 -303 -103 -379 -78 -25 -172 -9 -234 39
l-28 22 -38 -44 c-69 -78 -193 -130 -310 -130 -158 0 -259 88 -275 240 -9 80
5 104 81 139 49 23 65 25 132 20 68 -4 170 -32 288 -78 42 -17 73 -1 102 52
33 59 69 97 104 113 18 7 43 18 57 24 44 20 169 10 224 -18z m354 -316 c33
-22 52 -74 52 -143 0 -96 -47 -183 -66 -123 -3 9 -10 26 -14 37 -44 103 -66
200 -55 235 6 18 12 20 33 15 15 -3 38 -13 50 -21z m-597 -2294 c-13 -49 9
-270 27 -270 4 0 12 10 17 23 8 18 16 21 50 18 21 -1 50 -8 65 -14 16 -7 119
-11 280 -11 l255 -1 -3 -55 c-2 -30 -7 -71 -12 -90 -4 -19 -11 -66 -15 -105
-7 -65 -10 -72 -49 -108 -99 -93 -247 -183 -371 -225 -187 -64 -402 -52 -680
36 -114 36 -703 312 -713 334 -2 4 -4 10 -5 14 -3 11 73 32 192 54 197 36 263
51 308 71 54 23 76 24 93 4 18 -22 28 -19 50 18 18 28 20 47 19 167 l-2 135
168 7 c92 4 175 9 184 12 9 2 45 3 81 3 52 -2 64 -5 61 -17z m952 -79 c25 -11
47 -23 50 -28 5 -7 28 -343 31 -437 1 -44 24 -44 32 0 8 44 -1 197 -17 289 -7
41 -7 70 -1 81 7 13 15 2 37 -57 52 -137 66 -164 74 -150 9 13 -2 54 -40 154
-26 68 -19 82 31 64 121 -42 161 -95 299 -389 62 -134 93 -180 178 -259 164
-155 178 -172 212 -261 6 -15 32 -43 58 -62 26 -19 57 -52 68 -73 64 -126 144
-257 360 -589 128 -196 216 -359 286 -528 41 -98 40 -106 -18 -106 -92 0 -163
27 -288 108 -38 26 -101 59 -140 75 l-70 28 -18 -23 c-11 -12 -30 -45 -44 -71
-25 -51 -141 -382 -150 -429 -6 -32 -1 -33 99 -29 46 2 60 -1 77 -18 37 -37
19 -86 -41 -117 -36 -18 -225 -199 -371 -354 -54 -58 -104 -107 -110 -109 -15
-5 -2 108 23 199 37 135 50 220 50 330 0 60 5 122 11 137 24 58 52 113 68 130
33 35 103 145 126 196 27 63 81 219 90 266 10 49 -10 32 -40 -35 -14 -30 -25
-57 -25 -59 0 -7 -86 -199 -125 -280 -42 -86 -69 -127 -78 -118 -12 11 -8 84
9 173 9 47 18 99 21 115 2 17 8 39 13 50 5 11 11 31 13 45 2 14 13 61 23 105
16 67 19 120 19 330 -1 248 -2 262 -46 525 -5 30 -12 74 -15 98 -10 66 -28 52
-20 -15 50 -396 58 -826 21 -1028 -9 -49 -19 -102 -22 -117 -3 -16 -8 -28 -12
-28 -20 0 -31 30 -31 89 -1 160 -42 498 -90 746 -11 55 -25 127 -31 160 -6 33
-14 80 -19 105 -5 25 -14 79 -20 120 -6 41 -16 94 -21 117 -5 23 -9 63 -9 90
-1 93 -39 257 -56 240 -5 -4 5 -93 26 -247 5 -36 14 -101 20 -145 6 -44 15
-102 20 -130 5 -27 14 -81 20 -120 6 -38 15 -95 20 -125 51 -296 92 -599 110
-815 14 -160 9 -559 -9 -674 -6 -41 -38 -154 -71 -251 -32 -96 -62 -202 -66
-234 -7 -58 -9 -61 -127 -195 -229 -259 -417 -425 -549 -484 -114 -51 -145
-62 -243 -87 -82 -21 -308 -39 -341 -26 -16 6 -16 8 2 24 19 18 211 164 250
192 141 98 635 482 629 489 -9 8 -107 -41 -185 -93 -96 -64 -148 -104 -235
-180 -91 -79 -157 -129 -270 -203 -38 -24 -162 -115 -285 -208 -169 -128 -361
-170 -665 -145 -206 17 -250 23 -250 37 0 7 92 59 205 116 201 101 391 200
500 260 30 17 99 54 154 84 54 29 110 62 125 72 14 10 49 30 76 45 67 35 94
51 200 117 50 31 140 87 200 124 133 83 442 292 450 305 12 19 6 16 -137 -64
-110 -61 -406 -238 -628 -376 -119 -74 -327 -199 -378 -227 -23 -12 -63 -35
-90 -49 -26 -14 -51 -30 -57 -34 -5 -4 -59 -32 -120 -63 -354 -178 -547 -253
-801 -311 -87 -20 -290 -23 -366 -6 -84 20 -80 18 -69 38 24 44 202 241 255
282 100 77 363 328 471 450 176 198 595 718 704 873 57 82 227 429 340 697 51
118 96 225 101 238 6 12 14 32 19 45 20 51 32 78 91 202 57 118 97 204 150
321 58 128 120 360 120 451 1 75 16 125 44 146 28 20 34 55 14 75 -18 18 -14
101 10 167 24 70 38 155 25 155 -5 0 -26 -9 -48 -20 -22 -11 -49 -20 -62 -20
-28 0 -113 22 -113 30 0 10 162 83 223 101 81 23 126 23 180 0z m-2142 -392
c33 -30 224 -159 235 -159 3 0 18 -8 32 -18 52 -35 168 -80 241 -92 53 -9 107
-29 200 -75 205 -101 240 -110 436 -110 171 0 253 17 394 81 57 27 198 121
221 149 7 9 22 21 33 27 20 10 20 8 14 -88 -12 -208 -71 -396 -232 -739 -58
-124 -101 -219 -125 -280 -4 -11 -15 -36 -23 -55 -8 -19 -27 -64 -42 -100 -43
-104 -181 -386 -237 -484 -250 -440 -709 -985 -1278 -1516 -199 -185 -314
-290 -320 -290 -4 0 -19 13 -35 30 -34 36 -43 105 -25 190 17 81 49 265 60
345 16 110 39 412 40 503 l0 83 44 -6 c41 -7 45 -5 75 32 17 21 41 63 53 93
21 51 23 71 23 305 1 138 5 273 9 300 5 28 26 88 47 134 45 96 47 104 18 67
-11 -14 -25 -26 -31 -26 -12 0 -5 236 12 400 12 115 25 477 17 470 -14 -13
-44 -338 -67 -735 -5 -99 -15 -216 -20 -261 -6 -44 -10 -99 -10 -123 0 -23 -5
-75 -10 -114 -21 -145 -32 -213 -40 -242 -4 -16 -14 -56 -21 -89 -7 -32 -19
-60 -27 -63 -7 -3 -77 -1 -155 6 -316 25 -565 89 -792 205 -77 39 -101 56
-103 73 -4 30 29 124 90 253 27 58 73 155 101 215 45 97 109 224 365 730 34
66 122 244 196 395 116 237 228 431 283 493 9 9 30 17 47 17 22 0 264 89 272
99 0 1 16 -13 35 -30z m3427 -1860 c76 -39 137 -76 137 -82 0 -16 -86 -35
-166 -36 -51 -1 -70 -5 -87 -21 -35 -33 -52 -86 -52 -166 0 -60 -3 -75 -17
-82 -24 -11 -91 -8 -104 5 -14 14 11 109 61 232 21 53 44 119 51 146 12 47 26
75 36 75 3 0 66 -32 141 -71z m410 -148 l342 -1 0 -36 c0 -19 -9 -75 -21 -122
-70 -291 -191 -519 -383 -720 -80 -84 -161 -107 -359 -100 -147 5 -157 10
-157 78 0 105 58 169 228 250 101 48 132 70 101 70 -6 0 -49 -13 -96 -30 -46
-16 -86 -30 -88 -30 -2 0 -24 30 -49 68 -58 86 -65 117 -34 161 34 48 79 70
223 106 131 33 166 45 160 55 -13 22 -203 -23 -283 -68 -42 -23 -44 -23 -64
-5 -43 39 -62 93 -62 184 -1 114 11 137 73 141 25 2 64 2 86 2 22 -1 194 -2
383 -3z m-4961 -380 c65 -17 159 -39 208 -51 210 -48 271 -64 279 -71 6 -5 -1
-36 -17 -76 -42 -111 -92 -268 -137 -433 -143 -526 -205 -720 -275 -860 -18
-36 -40 -97 -50 -135 -46 -185 -124 -381 -242 -604 -224 -426 -297 -591 -343
-770 -24 -89 -19 -120 22 -142 68 -36 346 -51 468 -24 36 8 71 14 78 15 18 0
72 -89 72 -121 0 -33 -40 -69 -99 -89 -75 -24 -85 -41 -100 -165 -7 -61 -21
-129 -31 -152 l-19 -43 45 -31 c25 -17 49 -42 54 -55 8 -20 16 -24 52 -24 24
0 59 -5 80 -10 48 -14 135 -17 175 -7 29 8 32 6 42 -26 10 -29 8 -43 -10 -92
-38 -102 -43 -108 -101 -122 -64 -15 -148 -16 -214 -4 -65 12 -271 25 -263 17
6 -6 103 -44 174 -68 17 -5 57 -13 90 -16 33 -4 59 -11 59 -17 -3 -17 -106
-47 -182 -53 -78 -5 -185 9 -298 38 -97 26 -216 69 -233 85 -43 41 -100 394
-101 623 0 78 5 117 21 165 17 51 21 84 20 187 -2 142 17 399 55 760 26 250
37 378 54 625 21 294 47 429 105 545 12 25 39 103 60 175 48 164 82 264 245
710 34 94 73 206 87 250 28 90 31 95 43 95 4 0 61 -13 127 -29z m4377 -116 c6
-10 30 -48 54 -83 47 -70 52 -97 21 -107 -23 -8 -74 -73 -95 -124 -8 -18 -14
-59 -14 -91 0 -49 4 -61 26 -84 15 -14 30 -26 35 -26 4 0 19 -4 32 -9 l25 -10
-37 -88 c-103 -239 -182 -498 -311 -1017 -34 -137 -75 -285 -92 -330 -82 -221
-98 -292 -98 -421 0 -143 -14 -197 -169 -655 -54 -162 -156 -470 -227 -685
-114 -351 -202 -609 -254 -750 -71 -193 -145 -378 -206 -513 -13 -29 -24 -55
-24 -57 0 -3 -15 -38 -33 -77 -19 -40 -62 -138 -97 -218 -34 -80 -68 -158 -75
-175 -24 -54 -77 -189 -102 -260 -14 -38 -31 -83 -38 -100 -7 -16 -29 -73 -50
-125 -20 -52 -43 -108 -50 -125 -7 -16 -21 -50 -31 -75 -58 -141 -197 -397
-282 -520 -114 -163 -384 -468 -489 -551 -68 -54 -178 -129 -248 -169 -241
-138 -371 -222 -455 -290 -29 -24 -71 -45 -117 -59 -40 -12 -101 -34 -135 -50
-193 -89 -329 -128 -342 -96 -12 32 -36 220 -36 284 0 84 22 189 52 249 l23
47 85 12 c91 12 187 44 267 88 50 28 95 65 77 65 -5 0 -75 -26 -154 -58 -133
-54 -272 -93 -285 -80 -14 13 -25 400 -25 873 0 551 -8 703 -60 1260 -20 209
-30 351 -37 507 l-6 158 45 48 c24 26 53 60 62 75 10 15 22 27 27 27 5 0 32
11 61 24 29 13 71 31 92 40 57 24 267 141 371 206 49 32 132 84 182 116 84 53
108 74 85 74 -18 0 -164 -81 -214 -118 -60 -46 -179 -117 -253 -152 -82 -39
-289 -119 -295 -115 -10 6 -32 486 -28 605 l3 105 50 26 c28 14 59 28 70 31
75 22 316 117 394 154 69 33 110 61 152 103 88 89 95 148 34 286 -53 118 -96
203 -108 213 -7 6 -43 13 -81 16 -43 4 -76 12 -87 22 -17 15 -21 14 -66 -12
-99 -58 -356 -184 -364 -178 -5 3 -9 69 -9 147 0 128 -8 242 -41 562 -42 421
-10 667 108 822 33 43 47 46 127 29 70 -14 131 -49 235 -134 69 -56 143 -91
210 -99 28 -3 51 -9 51 -12 0 -3 -22 -19 -50 -34 -104 -58 -220 -155 -373
-309 -86 -88 -157 -164 -157 -169 0 -26 80 39 230 186 252 247 365 310 555
310 123 0 120 -13 -21 -125 -144 -114 -282 -245 -270 -257 10 -11 57 26 161
127 125 121 208 180 286 207 115 39 674 10 741 -38 l27 -19 103 30 c57 16 142
43 188 60 47 17 105 38 130 47 78 27 299 131 395 186 141 81 207 124 295 195
30 24 56 39 58 33 6 -18 -75 -146 -160 -254 -135 -171 -312 -342 -667 -650
-24 -20 -42 -39 -40 -41 7 -7 121 66 224 144 98 73 341 306 423 405 23 27 81
102 129 167 49 64 92 117 97 118 5 0 5 -15 1 -32 -4 -18 -11 -49 -15 -68 -9
-40 -43 -202 -64 -305 -8 -38 -26 -133 -41 -210 -72 -385 -86 -464 -95 -517
-20 -117 -32 -184 -41 -228 -5 -25 -18 -101 -29 -170 -34 -212 -52 -293 -73
-335 -27 -55 -97 -158 -198 -292 -46 -62 -138 -198 -204 -303 -178 -283 -258
-385 -556 -711 -146 -159 -253 -293 -247 -310 8 -23 281 264 443 465 178 221
341 447 629 873 49 73 93 130 97 127 4 -2 6 -28 3 -57 -5 -52 -76 -436 -95
-512 -8 -34 -76 -369 -99 -490 -25 -131 -62 -315 -70 -345 -5 -19 -14 -62 -20
-95 -7 -33 -16 -73 -21 -89 -5 -16 -9 -41 -8 -55 l0 -26 11 25 c21 49 26 65
32 90 4 14 31 120 61 235 74 288 107 436 174 790 39 211 116 650 141 805 12
76 24 143 49 280 6 30 15 82 21 115 26 148 114 590 136 685 14 58 29 123 34
145 14 63 47 200 75 317 14 59 32 140 39 180 36 191 68 333 90 391 44 118 55
134 215 322 51 60 118 146 149 190 50 72 117 156 179 225 12 13 25 38 29 55 6
25 46 94 89 152 12 16 25 12 39 -12z m-3781 -433 c-2 -329 -8 -392 -58 -580
-27 -104 -27 -104 -10 -174 l17 -69 -25 -38 c-41 -61 -81 -155 -102 -236 -32
-128 -38 -218 -31 -500 4 -154 11 -325 16 -380 5 -55 12 -211 16 -347 5 -192
4 -251 -6 -263 -16 -20 -207 -113 -246 -121 -30 -6 -32 -4 -70 73 -49 98 -66
106 -190 85 -79 -13 -91 -13 -189 7 -57 12 -133 21 -169 21 l-65 0 8 28 c10
33 131 341 160 404 10 24 34 79 54 123 50 115 90 202 164 355 76 158 153 336
153 353 0 7 10 52 21 100 16 66 34 107 69 160 52 81 80 153 80 207 0 50 18 98
52 141 23 29 30 51 38 117 11 94 23 133 89 286 26 61 67 172 90 246 39 123 80
248 103 309 7 19 11 22 21 12 9 -9 11 -90 10 -319z m3597 296 c0 -16 -77 -112
-206 -260 -55 -62 -115 -133 -135 -158 -107 -136 -203 -315 -243 -453 -30
-102 -32 -107 -52 -107 -23 0 -107 -42 -134 -68 -91 -85 -429 -278 -645 -369
-27 -11 -104 -44 -170 -73 l-120 -52 -180 11 c-99 6 -279 15 -400 21 -389 19
-602 48 -785 107 -61 19 -166 71 -180 88 -14 17 -7 19 125 35 50 6 120 21 157
32 72 22 92 22 253 -6 333 -56 648 -33 844 62 74 36 76 36 190 34 107 -3 234
8 275 24 10 4 16 1 16 -9 0 -29 -114 -91 -308 -169 -70 -27 -139 -55 -154 -61
-32 -13 -37 -27 -10 -27 36 0 175 41 245 71 96 42 127 61 228 140 78 62 184
129 314 199 187 100 334 227 550 475 122 139 139 158 200 225 89 97 194 200
250 245 28 22 52 43 53 48 6 12 22 8 22 -5z m860 -206 c0 -80 -41 -228 -87
-310 -79 -143 -246 -357 -271 -347 -8 3 -26 8 -40 11 -15 4 -31 10 -37 14 -11
8 -28 13 -134 40 -94 24 -107 36 -86 76 8 16 15 35 15 41 0 7 12 15 28 18 85
18 123 31 172 59 74 41 343 300 351 339 7 28 64 97 81 97 4 0 8 -17 8 -38z
m-240 -161 c0 -30 -149 -164 -222 -200 -75 -37 -148 -52 -148 -30 0 18 46 162
60 189 9 17 21 20 78 20 65 1 187 21 199 34 13 13 33 5 33 -13z m224 -828 c3
-357 10 -738 16 -848 5 -110 12 -436 16 -724 6 -440 5 -525 -7 -532 -18 -12
-105 -4 -324 32 -99 16 -216 29 -260 29 -92 0 -194 -22 -241 -51 -18 -11 -35
-16 -38 -10 -15 23 46 459 114 816 12 61 26 135 31 165 14 72 23 117 44 220
36 179 67 337 75 385 5 28 20 115 35 195 33 187 65 410 75 528 4 52 12 98 18
104 13 13 78 -7 85 -27 5 -11 12 -11 41 -1 28 10 42 23 61 62 13 27 57 85 98
129 40 45 88 102 107 128 18 26 37 47 41 47 4 0 10 -291 13 -647z m-589 371
c11 -8 36 -19 57 -25 45 -12 44 -8 23 -169 -21 -150 -89 -573 -125 -775 -16
-89 -88 -474 -125 -670 -20 -104 -40 -214 -46 -242 -5 -29 -13 -77 -19 -105
-5 -29 -18 -105 -29 -168 -11 -63 -27 -153 -35 -200 -18 -100 -20 -142 -6
-190 9 -34 13 -37 69 -48 86 -18 142 -54 243 -156 50 -50 127 -120 171 -156
94 -75 127 -119 127 -167 0 -38 -5 -41 -225 -133 -55 -23 -119 -52 -142 -65
-24 -13 -45 -20 -47 -16 -3 4 0 38 5 76 5 39 14 106 19 150 17 141 29 213 45
257 26 76 13 94 -22 31 -24 -42 -37 -109 -53 -255 -5 -54 -19 -137 -31 -185
-50 -214 -54 -283 -13 -283 16 0 64 -68 64 -92 0 -28 -292 -160 -312 -140 -10
10 -38 442 -38 587 0 91 -16 353 -40 675 -31 402 -35 881 -10 1030 5 30 15 89
21 130 6 41 50 190 96 330 47 140 101 316 120 390 19 74 38 149 43 165 5 17
20 75 34 130 32 120 51 183 78 253 19 47 23 52 52 52 17 0 40 -7 51 -16z
m-541 -1916 c32 -751 45 -1505 45 -2538 1 -437 -3 -800 -7 -806 -4 -6 -33 -20
-65 -30 -44 -14 -61 -25 -69 -44 -5 -14 -12 -124 -15 -245 -6 -203 -5 -222 12
-238 10 -11 24 -15 34 -12 38 15 72 17 87 5 12 -11 14 -26 8 -79 -3 -36 -11
-72 -17 -80 -19 -23 -100 -48 -237 -71 -41 -7 -92 -17 -114 -22 -21 -5 -41 -6
-45 -1 -3 4 -4 159 -1 343 3 184 1 340 -3 347 -5 6 -14 10 -20 8 -7 -3 -48 -9
-92 -14 -44 -5 -145 -21 -225 -35 -176 -30 -333 -48 -409 -46 -31 1 -61 1 -67
1 -13 -1 -26 -174 -28 -368 -1 -127 0 -133 19 -133 60 1 315 38 315 46 0 2 -9
26 -20 54 -20 52 -26 106 -12 126 23 35 283 63 295 32 3 -7 2 -93 -1 -190 -5
-178 1 -214 26 -145 13 35 15 217 3 322 -6 57 -7 60 -35 63 -17 2 -70 -4 -119
-13 -55 -11 -110 -16 -148 -12 -32 3 -60 2 -60 -1 -1 -4 -4 -54 -8 -112 l-6
-105 -51 -6 c-28 -4 -68 -12 -88 -19 -70 -23 -70 -23 -63 193 3 105 9 202 14
215 8 22 15 23 135 27 116 4 217 16 371 45 82 15 167 30 205 37 l32 6 -1 -209
c0 -115 -4 -265 -8 -334 -4 -69 -5 -131 -3 -138 9 -27 179 -8 403 47 59 14 62
7 54 -113 -4 -58 -11 -109 -16 -112 -5 -3 -80 -12 -167 -19 -215 -20 -313 -30
-632 -64 -454 -49 -532 -54 -850 -48 -289 5 -360 11 -360 28 0 4 11 20 24 34
13 14 34 51 46 83 36 91 76 111 157 77 48 -20 53 -19 53 9 0 47 31 171 54 216
39 77 156 265 168 269 8 2 9 -11 3 -45 -4 -27 -8 -133 -9 -236 l-1 -187 55 -8
c30 -4 192 -7 360 -7 322 1 455 14 455 45 0 19 -51 18 -345 -4 -129 -10 -291
-17 -360 -15 l-125 3 5 35 c7 54 5 203 -4 321 -11 138 -2 176 90 367 41 84 74
155 74 158 0 2 9 23 19 47 19 43 71 175 186 477 36 96 71 184 75 195 5 11 29
67 54 125 24 58 68 155 96 215 76 160 93 199 143 315 40 95 62 152 159 415 40
108 153 439 188 550 15 50 35 110 43 135 9 25 43 135 77 245 93 301 100 325
120 395 10 36 25 85 33 110 8 25 20 65 27 90 7 25 16 56 20 70 4 14 13 45 21
70 27 97 35 78 43 -112z m-2791 2 c65 -108 97 -192 97 -257 0 -38 -13 -49 -34
-27 -17 17 -18 20 -36 134 -15 91 -39 130 -81 130 -52 0 -57 -59 -12 -135 17
-30 29 -9 15 28 -15 41 -15 67 -2 67 21 0 46 -60 58 -137 7 -43 17 -98 23
-123 9 -38 8 -46 -7 -57 -10 -7 -24 -13 -31 -13 -21 0 -92 118 -114 190 -22
74 -49 229 -42 247 4 10 83 22 117 18 5 -1 27 -30 49 -65z m-179 -117 c50
-190 50 -191 6 -207 -91 -34 -235 -104 -680 -333 -226 -117 -282 -135 -335
-110 -22 10 -37 26 -41 43 -7 28 1 125 18 220 l11 61 176 78 c189 84 670 324
736 367 67 44 67 44 109 -119z m87 -253 c10 -19 15 -39 12 -43 -5 -8 -373
-191 -473 -235 -87 -38 -241 -93 -350 -124 -102 -29 -138 -32 -114 -8 5 5 193
102 417 215 225 112 418 212 430 220 33 23 60 15 78 -25z m3617 -219 c73 -15
136 -32 141 -37 5 -5 14 -92 20 -194 14 -241 14 -280 -1 -279 -7 0 -56 50
-108 111 -163 188 -313 304 -439 338 -39 10 -36 33 7 58 87 48 159 49 380 3z
m-5470 -263 c6 -40 18 -116 26 -168 9 -52 17 -103 18 -113 4 -26 -211 -135
-280 -144 -46 -5 -51 -3 -89 33 -32 30 -45 55 -62 110 -12 39 -21 82 -21 96 0
43 69 96 232 178 84 43 156 78 159 79 3 0 11 -32 17 -71z m117 -347 c5 -9 -65
-52 -188 -113 -57 -29 -134 -36 -131 -13 1 6 43 32 95 59 119 62 210 89 224
67z m4659 -2228 c9 -33 16 -328 8 -368 -6 -33 -14 -44 -50 -63 -23 -13 -46
-21 -52 -17 -16 10 -13 452 3 458 6 3 29 6 49 6 27 1 38 -4 42 -16z m-1769
-693 c7 -11 -12 -76 -28 -97 -13 -18 -87 -17 -87 0 0 17 81 105 97 106 6 1 15
-4 18 -9z m1699 -346 c11 -28 7 -162 -5 -170 -16 -9 -282 -54 -288 -48 -8 8
-41 178 -37 190 3 7 46 14 103 19 54 4 118 11 143 15 69 12 77 11 84 -6z m-4
-305 c0 -37 -4 -70 -8 -73 -5 -3 -41 -12 -80 -20 -56 -12 -77 -12 -102 -3 -17
6 -28 17 -26 23 2 6 0 16 -6 22 -11 11 6 52 22 52 6 0 10 7 10 16 0 13 -3 14
-14 5 -10 -8 -16 -9 -21 -1 -12 20 5 27 95 39 49 7 93 17 96 22 3 6 11 5 20
-2 10 -8 14 -33 14 -80z m31 -189 c4 -30 9 -66 13 -80 11 -46 -12 -61 -144
-90 -104 -23 -120 -19 -120 35 0 18 -5 56 -10 86 -7 34 -7 56 0 63 15 15 160
45 210 43 l45 -2 6 -55z m-2821 7 c0 -26 -26 -46 -65 -49 -51 -4 -54 17 -5 43
41 22 70 24 70 6z m-45 -96 c3 -5 0 -29 -6 -53 l-12 -44 -91 -12 c-50 -7 -116
-12 -148 -12 l-56 0 11 25 c13 26 33 33 39 13 8 -22 28 3 22 27 -4 17 0 26 16
35 45 24 213 40 225 21z m2907 -182 c15 -30 28 -74 30 -98 l3 -45 -58 -12
c-32 -6 -94 -12 -138 -12 l-80 0 3 95 3 95 50 19 c123 48 145 43 187 -42z
m-2942 -44 c0 -59 -2 -65 -22 -69 -44 -9 -104 -16 -191 -22 l-87 -6 3 66 c2
37 8 71 13 76 5 5 50 11 99 13 50 1 111 4 138 5 l47 2 0 -65z m-28 -120 c3 -3
2 -25 -3 -49 -4 -24 -9 -69 -10 -100 -3 -78 -12 -87 -76 -76 -29 5 -83 10
-120 11 -75 3 -103 12 -103 34 0 26 39 80 62 85 26 7 36 29 12 26 -9 0 -19 5
-21 12 -3 7 4 12 17 12 12 0 30 5 41 10 36 20 190 46 201 35z m3060 -38 c84
-50 178 -119 177 -130 0 -11 -175 -173 -205 -190 -20 -11 -108 8 -171 37 -56
27 -136 94 -163 139 -17 28 -17 30 6 71 l24 43 77 7 c77 7 190 30 201 40 8 9
14 7 54 -17z m286 -182 c17 -14 34 -25 38 -25 5 -1 20 -10 34 -22 l25 -21 -45
-36 c-102 -82 -247 -237 -284 -304 -21 -37 -46 -72 -56 -77 -29 -15 -126 -12
-139 4 -9 11 -9 15 0 18 8 3 9 9 4 19 -12 18 -7 49 10 69 7 8 23 36 35 62 37
80 286 338 326 338 12 0 36 -11 52 -25z m-3485 -50 c132 -7 147 -10 147 -34 0
-9 5 -22 12 -29 9 -9 9 -15 1 -23 -8 -8 -39 -6 -114 6 -65 11 -134 16 -191 13
-48 -2 -88 -1 -88 3 0 4 7 20 15 35 15 30 45 44 80 38 11 -1 73 -5 138 -9z
m2864 -19 c-4 -9 -1 -13 7 -10 12 5 29 -21 41 -62 3 -12 18 -26 33 -33 l27
-11 -28 25 c-33 29 -14 34 23 5 14 -11 31 -20 38 -20 21 0 13 -20 -9 -20 -20
0 -21 -1 -5 -25 9 -14 14 -30 11 -35 -9 -14 -76 0 -124 26 -24 13 -52 24 -62
24 -10 0 -25 10 -33 21 -10 15 -21 20 -36 16 -12 -3 -20 -2 -18 1 50 106 61
119 70 90 4 -10 11 -8 29 4 30 21 43 22 36 4z m824 -68 c27 -17 49 -35 49 -39
0 -4 -30 -34 -67 -66 -127 -111 -148 -139 -168 -228 l-12 -50 -44 1 c-87 2
-169 16 -169 30 0 37 104 188 174 251 49 45 170 133 183 133 3 0 27 -14 54
-32z m-3616 -46 c101 -20 77 2 200 -184 59 -89 80 -153 64 -195 -14 -36 -34
-27 -59 27 -46 98 -96 120 -375 170 -27 5 -119 12 -204 16 -84 3 -148 10 -142
14 9 5 8 10 -4 20 -8 7 -15 15 -15 19 0 32 233 49 370 27 100 -15 134 -8 95
20 -39 29 -117 44 -229 44 -97 0 -108 2 -91 14 56 39 217 42 390 8z m3032 -19
c6 -17 -32 -43 -55 -36 -23 6 -29 18 -12 28 6 4 8 11 5 16 -4 5 8 7 26 5 18
-2 35 -8 36 -13z m769 -38 c35 -25 66 -50 70 -56 3 -6 -23 -40 -58 -77 -36
-37 -71 -84 -78 -104 l-14 -38 -123 0 c-98 0 -125 3 -129 14 -9 22 44 130 79
164 31 29 178 142 186 142 2 0 32 -20 67 -45z m-1059 -31 c54 -19 121 -42 148
-51 28 -8 53 -17 57 -20 12 -6 -36 -95 -66 -122 -25 -24 -29 -24 -84 -13 -31
6 -90 15 -129 18 -71 7 -73 8 -73 34 0 15 -12 53 -26 85 -52 112 -1 133 173
69z m1255 -73 c18 -11 71 -32 118 -47 129 -40 181 -71 211 -126 7 -14 3 -21
-23 -35 -27 -14 -60 -18 -188 -18 -85 0 -199 6 -252 14 -85 12 -98 16 -98 33
0 43 47 101 135 167 48 36 55 36 97 12z m596 -53 c6 -7 13 -31 17 -53 4 -22 9
-48 12 -57 2 -11 -1 -18 -10 -18 -23 0 -44 32 -52 77 -9 56 7 81 33 51z
m-4716 -15 c45 -13 36 -28 -19 -31 -97 -6 -56 -22 55 -22 114 0 202 -17 233
-46 26 -24 26 -109 -1 -144 -18 -24 -22 -25 -137 -23 -130 1 -181 16 -209 58
l-16 25 -39 -34 c-54 -49 -91 -66 -145 -66 -35 0 -56 7 -82 26 -30 23 -34 31
-29 60 3 19 17 45 31 59 14 14 26 30 26 35 0 22 -30 8 -60 -27 -31 -38 -36
-70 -16 -114 9 -21 -32 -39 -90 -39 -66 0 -136 52 -149 113 -7 31 -17 34 -36
11 -10 -12 -10 -20 -1 -34 23 -38 -45 -67 -118 -52 -45 10 -49 33 -14 79 54
72 209 146 359 173 59 11 418 5 457 -7z m4597 -6 c13 -7 33 -24 44 -39 16 -21
18 -33 10 -64 -10 -43 -24 -50 -79 -39 -41 7 -84 49 -109 106 -16 35 -17 42
-4 50 17 11 104 2 138 -14z m-1870 -111 c30 -4 63 -12 73 -17 11 -6 127 -10
283 -10 195 0 265 -3 265 -11 0 -9 3 -9 12 0 16 16 217 16 313 0 39 -6 108
-12 155 -12 75 -1 142 -12 297 -47 70 -15 155 -11 224 13 52 17 90 22 199 23
78 1 155 7 182 15 37 10 53 11 74 2 69 -32 -26 -101 -175 -128 -110 -19 -582
-19 -676 1 -38 8 -121 15 -184 15 -63 0 -142 4 -175 9 -34 5 -151 15 -261 22
-110 6 -211 13 -225 15 -14 2 -81 8 -150 14 -200 16 -272 26 -279 39 -4 6 -15
9 -24 5 -28 -10 -81 5 -96 27 -12 20 -11 21 8 16 12 -3 21 -1 21 4 0 5 11 9
25 9 17 0 25 6 25 17 0 14 2 15 18 1 9 -9 41 -19 71 -22z m-2289 -143 c9 -33
8 -40 -9 -54 -49 -40 -271 -84 -476 -95 -124 -6 -498 11 -519 23 -5 4 -33 7
-62 9 -79 3 -154 34 -154 63 0 30 145 32 168 3 11 -14 12 -14 12 2 0 13 6 16
33 12 204 -31 331 -32 419 -2 37 13 52 14 75 5 16 -7 85 -12 168 -12 146 0
205 13 290 65 40 24 42 24 55 -19z m-1233 -39 c-3 -3 -12 -4 -19 -1 -8 3 -5 6
6 6 11 1 17 -2 13 -5z"></path>
<path d="M3620 14903 c-26 -9 -60 -46 -60 -63 0 -26 31 -56 72 -69 41 -13 69
-9 93 15 29 30 18 37 -49 31 -49 -5 -67 -3 -76 8 -18 21 -8 37 30 50 19 6 36
17 38 23 4 12 -21 15 -48 5z"></path>
<path d="M3225 14781 c-33 -20 -33 -27 -7 -83 14 -32 22 -38 47 -38 17 0 36 5
43 12 23 23 13 37 -30 40 -36 2 -44 7 -46 26 -3 19 1 22 28 22 25 0 31 4 28
17 -4 24 -27 25 -63 4z"></path>
<path d="M4634 11545 c-15 -37 -12 -55 10 -55 17 0 38 48 31 71 -9 29 -24 23
-41 -16z"></path>
<path d="M4498 10495 c-6 -10 -56 -168 -79 -252 -11 -41 -27 -97 -40 -143 -6
-19 -14 -48 -19 -65 -47 -168 -129 -384 -188 -495 -41 -79 -126 -210 -197
-305 -77 -105 -191 -254 -230 -304 -39 -48 -53 -87 -38 -102 6 -6 31 22 68 78
56 85 158 226 193 268 9 11 57 81 107 155 149 220 216 367 305 670 12 41 26
86 30 100 27 80 72 234 85 294 15 66 17 122 3 101z"></path>
<path d="M4250 9387 c-46 -83 -152 -201 -243 -272 -76 -59 -127 -119 -113
-132 13 -13 226 179 296 267 59 74 115 176 100 185 -5 3 -23 -19 -40 -48z"></path>
<path d="M2461 11186 c-11 -13 -21 -99 -41 -361 -17 -213 -33 -314 -71 -426
-40 -117 -11 -96 42 30 46 109 57 166 68 357 10 160 19 414 15 414 -1 0 -7 -6
-13 -14z"></path>
<path d="M2310 10295 c0 -8 2 -15 4 -15 2 0 6 7 10 15 3 8 1 15 -4 15 -6 0
-10 -7 -10 -15z"></path>
<path d="M6453 9760 c-16 -67 -38 -95 -100 -126 -45 -23 -53 -31 -59 -63 -7
-36 -21 -64 -67 -138 -53 -86 -34 -96 23 -12 41 61 60 103 60 134 0 16 12 28
46 45 81 42 141 139 118 190 -8 18 -11 13 -21 -30z"></path>
<path d="M865 5605 c-31 -26 -101 -45 -164 -45 -29 0 -44 -7 -64 -30 -31 -35
-34 -45 -9 -35 9 3 64 20 122 37 108 31 160 58 160 84 0 20 -10 17 -45 -11z"></path>
<path d="M3650 7092 c-61 -54 -47 -70 18 -21 28 22 52 44 52 49 0 20 -29 9
-70 -28z"></path>
<path d="M3780 6441 c0 -5 -7 -17 -16 -26 -9 -8 -13 -23 -10 -32 6 -14 10 -13
31 7 28 26 33 60 10 60 -8 0 -15 -4 -15 -9z"></path>
<path d="M3241 5946 c-15 -16 -19 -26 -11 -31 14 -9 60 21 60 40 0 22 -24 18
-49 -9z"></path>
<path d="M2977 4402 c-19 -21 -22 -42 -7 -42 19 0 60 32 60 46 0 20 -34 17
-53 -4z"></path>
<path d="M3447 4090 c-16 -22 -27 -45 -25 -51 5 -16 78 54 78 75 0 28 -24 17
-53 -24z"></path>
<path d="M2999 3439 c-130 -181 -192 -251 -489 -554 -299 -304 -330 -339 -330
-376 0 -37 21 -38 42 -1 29 48 181 218 357 397 197 202 227 235 310 340 66 84
166 243 158 251 -2 3 -24 -23 -48 -57z"></path>
<path d="M2585 2420 c-41 -42 -41 -61 -1 -42 32 14 62 60 50 72 -6 6 -24 -5
-49 -30z"></path>
<path d="M5020 1170 c-12 -8 -10 -10 8 -10 13 0 20 4 17 10 -7 12 -6 12 -25 0z"></path>
<path d="M1990 1006 c0 -8 -6 -16 -12 -19 -7 -2 -10 -8 -6 -12 8 -9 38 18 38
34 0 6 -4 11 -10 11 -5 0 -10 -6 -10 -14z"></path>
<path d="M1748 633 c7 -3 16 -2 19 1 4 3 -2 6 -13 5 -11 0 -14 -3 -6 -6z"></path>
<path d="M4675 370 c-3 -5 1 -10 10 -10 9 0 13 5 10 10 -3 6 -8 10 -10 10 -2
0 -7 -4 -10 -10z"></path>
<path d="M4780 370 c0 -5 5 -10 10 -10 6 0 10 5 10 10 0 6 -4 10 -10 10 -5 0
-10 -4 -10 -10z"></path>
<path d="M5468 283 c12 -2 32 -2 45 0 12 2 2 4 -23 4 -25 0 -35 -2 -22 -4z"></path>
<path d="M1400 200 c0 -5 5 -10 10 -10 6 0 10 5 10 10 0 6 -4 10 -10 10 -5 0
-10 -4 -10 -10z"></path>
<path d="M1436 165 c4 -8 12 -15 20 -15 8 0 14 7 14 15 0 8 -9 15 -20 15 -13
0 -18 -5 -14 -15z"></path>
<path d="M3530 15343 c-52 -5 -63 -12 -50 -33 7 -12 34 -15 121 -17 62 -1 118
1 125 4 58 22 -87 56 -196 46z"></path>
<path d="M3041 15207 c-40 -13 -146 -107 -140 -125 2 -7 33 7 79 38 41 28 90
58 107 66 57 28 23 43 -46 21z"></path>
<path d="M1992 14288 c4 -11 25 -21 76 -34 6 -2 12 -13 12 -25 0 -12 11 -37
26 -56 22 -29 31 -33 70 -33 62 0 59 24 -6 41 -27 7 -52 19 -55 27 -12 31 13
33 75 8 101 -41 142 -30 53 13 -116 57 -261 91 -251 59z"></path>
<path d="M3430 13700 c-80 -10 -212 -32 -294 -49 -82 -17 -150 -31 -153 -31
-7 0 -31 -65 -27 -72 12 -19 66 -5 128 33 91 55 137 66 401 99 84 10 118 22
98 32 -4 3 -73 -3 -153 -12z"></path>
<path d="M3630 12846 c0 -65 42 -116 95 -116 l26 0 -32 48 c-61 90 -89 112
-89 68z"></path>
</g>
</svg>